<svg id="visual" viewBox="0 0 900 600" width="900" height="600" xmlns="http://www.w3.org/2000/svg" xmlns:xlink="http://www.w3.org/1999/xlink" version="1.1"><rect x="0" y="0" width="900" height="600" fill="#234c86"></rect><defs><linearGradient id="grad1_0" x1="33.3%" y1="0%" x2="100%" y2="100%"><stop offset="20%" stop-color="#183052" stop-opacity="1"></stop><stop offset="80%" stop-color="#183052" stop-opacity="1"></stop></linearGradient></defs><defs><linearGradient id="grad1_1" x1="33.3%" y1="0%" x2="100%" y2="100%"><stop offset="20%" stop-color="#183052" stop-opacity="1"></stop><stop offset="80%" stop-color="#1a375f" stop-opacity="1"></stop></linearGradient></defs><defs><linearGradient id="grad1_2" x1="33.3%" y1="0%" x2="100%" y2="100%"><stop offset="20%" stop-color="#1d3e6b" stop-opacity="1"></stop><stop offset="80%" stop-color="#1a375f" stop-opacity="1"></stop></linearGradient></defs><defs><linearGradient id="grad1_3" x1="33.3%" y1="0%" x2="100%" y2="100%"><stop offset="20%" stop-color="#1d3e6b" stop-opacity="1"></stop><stop offset="80%" stop-color="#204579" stop-opacity="1"></stop></linearGradient></defs><defs><linearGradient id="grad1_4" x1="33.3%" y1="0%" x2="100%" y2="100%"><stop offset="20%" stop-color="#234c86" stop-opacity="1"></stop><stop offset="80%" stop-color="#204579" stop-opacity="1"></stop></linearGradient></defs><defs><linearGradient id="grad2_0" x1="0%" y1="0%" x2="66.7%" y2="100%"><stop offset="20%" stop-color="#183052" stop-opacity="1"></stop><stop offset="80%" stop-color="#183052" stop-opacity="1"></stop></linearGradient></defs><defs><linearGradient id="grad2_1" x1="0%" y1="0%" x2="66.7%" y2="100%"><stop offset="20%" stop-color="#1a375f" stop-opacity="1"></stop><stop offset="80%" stop-color="#183052" stop-opacity="1"></stop></linearGradient></defs><defs><linearGradient id="grad2_2" x1="0%" y1="0%" x2="66.7%" y2="100%"><stop offset="20%" stop-color="#1a375f" stop-opacity="1"></stop><stop offset="80%" stop-color="#1d3e6b" stop-opacity="1"></stop></linearGradient></defs><defs><linearGradient id="grad2_3" x1="0%" y1="0%" x2="66.7%" y2="100%"><stop offset="20%" stop-color="#204579" stop-opacity="1"></stop><stop offset="80%" stop-color="#1d3e6b" stop-opacity="1"></stop></linearGradient></defs><defs><linearGradient id="grad2_4" x1="0%" y1="0%" x2="66.7%" y2="100%"><stop offset="20%" stop-color="#204579" stop-opacity="1"></stop><stop offset="80%" stop-color="#234c86" stop-opacity="1"></stop></linearGradient></defs><g transform="translate(900, 0)"><path d="M0 324.5C-43.9 321.4 -87.9 318.4 -124.2 299.8C-160.5 281.2 -189.1 247.2 -215 215C-240.8 182.7 -264 152.2 -281.8 116.7C-299.6 81.2 -312 40.6 -324.5 0L0 0Z" fill="#21487f"></path><path d="M0 259.6C-35.2 257.1 -70.3 254.7 -99.3 239.8C-128.4 225 -151.3 197.8 -172 172C-192.7 146.2 -211.2 121.8 -225.4 93.4C-239.7 65 -249.6 32.5 -259.6 0L0 0Z" fill="#1e4172"></path><path d="M0 194.7C-26.4 192.9 -52.7 191 -74.5 179.9C-96.3 168.7 -113.4 148.3 -129 129C-144.5 109.6 -158.4 91.3 -169.1 70C-179.8 48.7 -187.2 24.4 -194.7 0L0 0Z" fill="#1c3a65"></path><path d="M0 129.8C-17.6 128.6 -35.2 127.3 -49.7 119.9C-64.2 112.5 -75.6 98.9 -86 86C-96.3 73.1 -105.6 60.9 -112.7 46.7C-119.8 32.5 -124.8 16.2 -129.8 0L0 0Z" fill="#193358"></path><path d="M0 64.9C-8.8 64.3 -17.6 63.7 -24.8 60C-32.1 56.2 -37.8 49.4 -43 43C-48.2 36.5 -52.8 30.4 -56.4 23.3C-59.9 16.2 -62.4 8.1 -64.9 0L0 0Z" fill="#183052"></path></g><g transform="translate(0, 600)"><path d="M0 -324.5C46.6 -323.9 93.3 -323.3 124.2 -299.8C155.1 -276.3 170.3 -229.9 198.7 -198.7C227.1 -167.5 268.8 -151.5 291.9 -120.9C315.1 -90.3 319.8 -45.2 324.5 0L0 0Z" fill="#21487f"></path><path d="M0 -259.6C37.3 -259.1 74.6 -258.6 99.3 -239.8C124.1 -221 136.2 -183.9 159 -159C181.7 -134 215 -121.2 233.6 -96.7C252.1 -72.3 255.8 -36.1 259.6 0L0 0Z" fill="#1e4172"></path><path d="M0 -194.7C28 -194.3 56 -194 74.5 -179.9C93.1 -165.8 102.2 -137.9 119.2 -119.2C136.3 -100.5 161.3 -90.9 175.2 -72.6C189.1 -54.2 191.9 -27.1 194.7 0L0 0Z" fill="#1c3a65"></path><path d="M0 -129.8C18.7 -129.6 37.3 -129.3 49.7 -119.9C62 -110.5 68.1 -92 79.5 -79.5C90.8 -67 107.5 -60.6 116.8 -48.4C126 -36.1 127.9 -18.1 129.8 0L0 0Z" fill="#193358"></path><path d="M0 -64.9C9.3 -64.8 18.7 -64.7 24.8 -60C31 -55.3 34.1 -46 39.7 -39.7C45.4 -33.5 53.8 -30.3 58.4 -24.2C63 -18.1 64 -9 64.9 0L0 0Z" fill="#183052"></path></g></svg>