<svg id="visual" viewBox="0 0 960 540" width="960" height="540" xmlns="http://www.w3.org/2000/svg" xmlns:xlink="http://www.w3.org/1999/xlink" version="1.1"><rect x="0" y="0" width="960" height="540" fill="#ffe009"></rect><defs><linearGradient id="grad1_0" x1="43.8%" y1="0%" x2="100%" y2="100%"><stop offset="14.444444444444446%" stop-color="#e0c200" stop-opacity="1"></stop><stop offset="85.55555555555554%" stop-color="#e0c200" stop-opacity="1"></stop></linearGradient></defs><defs><linearGradient id="grad1_1" x1="43.8%" y1="0%" x2="100%" y2="100%"><stop offset="14.444444444444446%" stop-color="#e0c200" stop-opacity="1"></stop><stop offset="85.55555555555554%" stop-color="#e8c902" stop-opacity="1"></stop></linearGradient></defs><defs><linearGradient id="grad1_2" x1="43.8%" y1="0%" x2="100%" y2="100%"><stop offset="14.444444444444446%" stop-color="#efd104" stop-opacity="1"></stop><stop offset="85.55555555555554%" stop-color="#e8c902" stop-opacity="1"></stop></linearGradient></defs><defs><linearGradient id="grad1_3" x1="43.8%" y1="0%" x2="100%" y2="100%"><stop offset="14.444444444444446%" stop-color="#efd104" stop-opacity="1"></stop><stop offset="85.55555555555554%" stop-color="#f7d806" stop-opacity="1"></stop></linearGradient></defs><defs><linearGradient id="grad1_4" x1="43.8%" y1="0%" x2="100%" y2="100%"><stop offset="14.444444444444446%" stop-color="#ffe009" stop-opacity="1"></stop><stop offset="85.55555555555554%" stop-color="#f7d806" stop-opacity="1"></stop></linearGradient></defs><defs><linearGradient id="grad2_0" x1="0%" y1="0%" x2="56.3%" y2="100%"><stop offset="14.444444444444446%" stop-color="#e0c200" stop-opacity="1"></stop><stop offset="85.55555555555554%" stop-color="#e0c200" stop-opacity="1"></stop></linearGradient></defs><defs><linearGradient id="grad2_1" x1="0%" y1="0%" x2="56.3%" y2="100%"><stop offset="14.444444444444446%" stop-color="#e8c902" stop-opacity="1"></stop><stop offset="85.55555555555554%" stop-color="#e0c200" stop-opacity="1"></stop></linearGradient></defs><defs><linearGradient id="grad2_2" x1="0%" y1="0%" x2="56.3%" y2="100%"><stop offset="14.444444444444446%" stop-color="#e8c902" stop-opacity="1"></stop><stop offset="85.55555555555554%" stop-color="#efd104" stop-opacity="1"></stop></linearGradient></defs><defs><linearGradient id="grad2_3" x1="0%" y1="0%" x2="56.3%" y2="100%"><stop offset="14.444444444444446%" stop-color="#f7d806" stop-opacity="1"></stop><stop offset="85.55555555555554%" stop-color="#efd104" stop-opacity="1"></stop></linearGradient></defs><defs><linearGradient id="grad2_4" x1="0%" y1="0%" x2="56.3%" y2="100%"><stop offset="14.444444444444446%" stop-color="#f7d806" stop-opacity="1"></stop><stop offset="85.55555555555554%" stop-color="#ffe009" stop-opacity="1"></stop></linearGradient></defs><g transform="translate(960, 0)"><path d="M0 351C-47 345 -94 339 -132 318.7C-170.1 298.5 -199.2 264.1 -232.6 232.6C-266.1 201.2 -303.8 172.6 -324.3 134.3C-344.7 96 -347.9 48 -351 0L0 0Z" fill="#fbdc08"></path><path d="M0 280.8C-37.6 276 -75.2 271.2 -105.6 255C-136.1 238.8 -159.4 211.3 -186.1 186.1C-212.9 160.9 -243.1 138.1 -259.4 107.5C-275.8 76.8 -278.3 38.4 -280.8 0L0 0Z" fill="#f3d505"></path><path d="M0 210.6C-28.2 207 -56.4 203.4 -79.2 191.2C-102 179.1 -119.5 158.5 -139.6 139.6C-159.6 120.7 -182.3 103.6 -194.6 80.6C-206.8 57.6 -208.7 28.8 -210.6 0L0 0Z" fill="#eccd03"></path><path d="M0 140.4C-18.8 138 -37.6 135.6 -52.8 127.5C-68 119.4 -79.7 105.6 -93.1 93.1C-106.4 80.5 -121.5 69 -129.7 53.7C-137.9 38.4 -139.1 19.2 -140.4 0L0 0Z" fill="#e4c601"></path><path d="M0 70.2C-9.4 69 -18.8 67.8 -26.4 63.7C-34 59.7 -39.8 52.8 -46.5 46.5C-53.2 40.2 -60.8 34.5 -64.9 26.9C-68.9 19.2 -69.6 9.6 -70.2 0L0 0Z" fill="#e0c200"></path></g><g transform="translate(0, 540)"><path d="M0 -351C43.5 -336.3 87 -321.5 125.1 -302.1C163.3 -282.7 196.1 -258.5 231.2 -231.2C266.4 -203.9 303.9 -173.4 324.3 -134.3C344.6 -95.3 347.8 -47.6 351 0L0 0Z" fill="#fbdc08"></path><path d="M0 -280.8C34.8 -269 69.6 -257.2 100.1 -241.7C130.6 -226.1 156.9 -206.8 185 -185C213.1 -163.1 243.1 -138.7 259.4 -107.5C275.7 -76.2 278.3 -38.1 280.8 0L0 0Z" fill="#f3d505"></path><path d="M0 -210.6C26.1 -201.8 52.2 -192.9 75.1 -181.3C98 -169.6 117.6 -155.1 138.7 -138.7C159.8 -122.3 182.4 -104 194.6 -80.6C206.8 -57.2 208.7 -28.6 210.6 0L0 0Z" fill="#eccd03"></path><path d="M0 -140.4C17.4 -134.5 34.8 -128.6 50.1 -120.8C65.3 -113.1 78.4 -103.4 92.5 -92.5C106.6 -81.6 121.6 -69.4 129.7 -53.7C137.9 -38.1 139.1 -19.1 140.4 0L0 0Z" fill="#e4c601"></path><path d="M0 -70.2C8.7 -67.3 17.4 -64.3 25 -60.4C32.7 -56.5 39.2 -51.7 46.2 -46.2C53.3 -40.8 60.8 -34.7 64.9 -26.9C68.9 -19.1 69.6 -9.5 70.2 0L0 0Z" fill="#e0c200"></path></g></svg>